<?xml version="1.0" encoding="UTF-8"?>
<svg version="1.1" xmlns="http://www.w3.org/2000/svg" width="256" height="206">
<path d="M0 0 C0.28470551 3.89410887 0.52164029 7.78971313 0.75 11.6875 C0.83121094 12.79029297 0.91242188 13.89308594 0.99609375 15.02929688 C1.44208004 23.23048925 1.44208004 23.23048925 -0.77734375 27.09375 C-1.87755859 28.03734375 -1.87755859 28.03734375 -3 29 C-3.55300781 29.50144531 -4.10601562 30.00289062 -4.67578125 30.51953125 C-5.21589844 30.94621094 -5.75601563 31.37289062 -6.3125 31.8125 C-9.66773779 34.60256981 -12.43431283 37.67913279 -15.25 41.00390625 C-16.91838768 42.90691094 -18.66500642 44.63421368 -20.5 46.375 C-26.60754087 52.42739377 -32.15282328 59.24584054 -33 68 C-30.48445889 79.99719604 -19.20555744 87.88230095 -10 95 C-9.21753906 95.62519531 -8.43507813 96.25039062 -7.62890625 96.89453125 C-3.78552216 100.17121954 -3.78552216 100.17121954 1 101 C2.35145109 99.42861283 2.35145109 99.42861283 3.49609375 97.29296875 C3.96595703 96.48859375 4.43582031 95.68421875 4.91992188 94.85546875 C5.42072266 93.97503906 5.92152344 93.09460938 6.4375 92.1875 C7.51750793 90.33605783 8.59959076 88.48582468 9.68359375 86.63671875 C10.23515137 85.69231934 10.78670898 84.74791992 11.35498047 83.77490234 C13.81455067 79.62597463 16.40121387 75.56263765 19 71.5 C23.49328386 64.44016403 27.85223151 57.31158661 32.1418457 50.12646484 C36.62969244 42.60933964 41.14842411 35.11127241 45.6875 27.625 C46.05377502 27.02088287 46.42005005 26.41676575 46.79742432 25.79434204 C52.06735562 17.10993014 57.40526804 8.47976469 63 0 C66.87997519 0.54943705 69.15087406 1.56856381 72.25 3.9375 C88.75434316 15.83990222 107.39332412 24.55358046 125.46435547 33.76611328 C160.48581035 51.63071955 160.48581035 51.63071955 163.9375 60.375 C164.02714778 64.14020664 163.04009931 66.90607179 161 70 C155.90000225 75.26483532 149.93279705 79.1792896 143.6875 82.9375 C142.34473999 83.75831055 142.34473999 83.75831055 140.97485352 84.59570312 C134.08028252 88.79224527 127.1240795 92.88375223 120.16946411 96.97967529 C104.47354255 106.22636607 88.98714934 115.69010279 74.48925781 126.7512207 C70.1998682 130 70.1998682 130 68 130 C67.66089006 127.95928485 67.32897296 125.91737379 67 123.875 C66.814375 122.73804688 66.62875 121.60109375 66.4375 120.4296875 C66.293125 119.29789062 66.14875 118.16609375 66 117 C65.83113281 116.03449219 65.66226563 115.06898438 65.48828125 114.07421875 C66.31673636 109.097164 69.70229265 106.41087839 73.1875 102.9375 C73.9105835 102.19234131 74.63366699 101.44718262 75.37866211 100.67944336 C78.77804672 97.19120059 82.23294541 93.76124706 85.7109375 90.3515625 C86.82854708 89.2556386 87.94575263 88.15930248 89.0625 87.0625 C89.59286865 86.54179932 90.1232373 86.02109863 90.66967773 85.48461914 C96.68017004 79.48176284 102.47428125 73.08194791 103.375 64.375 C103.156753 55.15826149 96.45374119 48.89200305 90.18359375 42.8515625 C83.36582549 36.62692498 76.03195586 30.57249922 68 26 C67.75507813 26.69609375 67.51015625 27.3921875 67.2578125 28.109375 C65.81185431 31.43238449 63.92383409 34.28233753 61.875 37.25 C57.21924159 44.11575926 52.71413413 51.07079172 48.25 58.0625 C47.21915283 59.67656738 47.21915283 59.67656738 46.16748047 61.32324219 C41.20525939 69.09997847 36.25411908 76.88377565 31.30322266 84.66772461 C26.75045126 91.82439127 22.19149073 98.97707887 17.625 106.125 C16.66207031 107.63513672 16.66207031 107.63513672 15.6796875 109.17578125 C14.43173838 111.12763556 13.17826048 113.07596736 11.91894531 115.02050781 C10.55397142 117.13986422 9.21260475 119.26641556 7.88574219 121.40917969 C7.18868164 122.50907227 6.49162109 123.60896484 5.7734375 124.7421875 C5.14614746 125.74878418 4.51885742 126.75538086 3.87255859 127.79248047 C3.25461426 128.52096191 2.63666992 129.24944336 2 130 C-2.79090169 130 -4.69475369 128.33590351 -8.3125 125.5625 C-25.53123471 112.87454 -44.84820773 103.39113874 -63.73046875 93.45703125 C-65.86199117 92.32554344 -67.99350205 91.1940339 -70.125 90.0625 C-71.10138428 89.55557617 -72.07776855 89.04865234 -73.08374023 88.52636719 C-86.9233572 81.1532856 -86.9233572 81.1532856 -90 75 C-90.51113524 68.96860421 -89.89799095 64.84194888 -86 60 C-83.51019917 57.43067237 -80.80305492 55.21927083 -78 53 C-77.01386719 52.21367188 -76.02773437 51.42734375 -75.01171875 50.6171875 C-68.98535274 45.87019763 -62.81864713 41.44259176 -56.3984375 37.23828125 C-45.27979365 29.95446236 -34.393339 22.30206197 -23.5 14.6875 C-22.24135132 13.80819824 -22.24135132 13.80819824 -20.95727539 12.91113281 C-15.55813545 9.12652323 -10.23393045 5.26371001 -4.99609375 1.2578125 C-3 0 -3 0 0 0 Z " fill="#FCA70C" transform="translate(91,44)"/>
<path d="M0 0 C0.28470551 3.89410887 0.52164029 7.78971313 0.75 11.6875 C0.83121094 12.79029297 0.91242188 13.89308594 0.99609375 15.02929688 C1.44208004 23.23048925 1.44208004 23.23048925 -0.77734375 27.09375 C-1.87755859 28.03734375 -1.87755859 28.03734375 -3 29 C-3.55300781 29.50144531 -4.10601562 30.00289062 -4.67578125 30.51953125 C-5.21589844 30.94621094 -5.75601563 31.37289062 -6.3125 31.8125 C-9.66773779 34.60256981 -12.43431283 37.67913279 -15.25 41.00390625 C-16.91838768 42.90691094 -18.66500642 44.63421368 -20.5 46.375 C-26.60754087 52.42739377 -32.15282328 59.24584054 -33 68 C-30.48445889 79.99719604 -19.20555744 87.88230095 -10 95 C-9.21753906 95.62519531 -8.43507813 96.25039062 -7.62890625 96.89453125 C-3.78552216 100.17121954 -3.78552216 100.17121954 1 101 C2.35145109 99.42861283 2.35145109 99.42861283 3.49609375 97.29296875 C3.96595703 96.48859375 4.43582031 95.68421875 4.91992188 94.85546875 C5.42072266 93.97503906 5.92152344 93.09460938 6.4375 92.1875 C7.51750793 90.33605783 8.59959076 88.48582468 9.68359375 86.63671875 C10.23515137 85.69231934 10.78670898 84.74791992 11.35498047 83.77490234 C13.81455067 79.62597463 16.40121387 75.56263765 19 71.5 C22.98498899 65.23879562 26.88203275 58.93443015 30.6875 52.5625 C31.1623584 51.76803467 31.6372168 50.97356934 32.12646484 50.1550293 C33.15747975 48.42957877 34.18839922 46.70407121 35.21923828 44.97851562 C38.45956425 39.55872171 41.70521234 34.14226217 44.96694946 28.73532104 C45.73657712 27.45743531 46.50431134 26.17840724 47.27011108 24.89822388 C48.34462081 23.10243298 49.42544904 21.31059626 50.5078125 19.51953125 C51.13316895 18.47901611 51.75852539 17.43850098 52.40283203 16.36645508 C54 14 54 14 56 13 C54.5198325 18.38780969 51.95273329 22.56016178 48.9375 27.1875 C48.02712528 28.59583565 47.1194554 30.00592442 46.21484375 31.41796875 C45.81386475 32.03438232 45.41288574 32.6507959 44.99975586 33.28588867 C43.83904989 35.14151286 43.83904989 35.14151286 43 38 C42.34 38 41.68 38 41 38 C40.75894531 38.6703125 40.51789063 39.340625 40.26953125 40.03125 C38.69941428 43.70290815 36.72794886 47.07706585 34.6875 50.5 C34.25236084 51.23484619 33.81722168 51.96969238 33.36889648 52.72680664 C28.76566841 60.46181183 24.01506123 68.10523772 19.2578125 75.74609375 C17.10649308 79.20498998 14.97631165 82.67537153 12.8671875 86.16015625 C12.37275146 86.97621338 11.87831543 87.79227051 11.36889648 88.63305664 C10.44364124 90.16304975 9.52108714 91.69468107 8.60180664 93.22827148 C6.29104139 97.04467755 3.89033094 100.58233385 1 104 C-3.14912398 103.43876584 -5.94297582 101.01994199 -9.125 98.5 C-9.97952759 97.83266846 -9.97952759 97.83266846 -10.85131836 97.15185547 C-16.11027342 93.00086144 -21.13412138 88.60600665 -26 84 C-26.75152344 83.29617187 -27.50304688 82.59234375 -28.27734375 81.8671875 C-30 80 -30 80 -30 78 C-30.66 78 -31.32 78 -32 78 C-35.30648317 72.76473498 -36.09820613 68.03098199 -35 62 C-32.10445062 55.56178983 -26.86249808 50.42937503 -22.1171875 45.30859375 C-20.34849544 43.38000149 -18.69010315 41.42154243 -17.0625 39.375 C-16.381875 38.59125 -15.70125 37.8075 -15 37 C-14.34 37 -13.68 37 -13 37 C-12.62875 36.14148438 -12.62875 36.14148438 -12.25 35.265625 C-10.80683801 32.64989389 -9.11783778 30.85226544 -7 28.75 C-5.948125 27.69039062 -5.948125 27.69039062 -4.875 26.609375 C-3 25 -3 25 -1 25 C-1 17.41 -1 9.82 -1 2 C-6.42935997 5.01109764 -6.42935997 5.01109764 -11.3515625 8.47265625 C-11.89296875 8.89740234 -12.434375 9.32214844 -12.9921875 9.75976562 C-13.53101562 10.18966797 -14.06984375 10.61957031 -14.625 11.0625 C-17.61241303 13.4334068 -20.54870675 15.73208348 -23.8359375 17.68359375 C-26.12959777 18.81608418 -26.12959777 18.81608418 -27 21 C-27.82757813 21.4125 -28.65515625 21.825 -29.5078125 22.25 C-33.91869458 24.46037492 -37.83104543 27.18624254 -41.875 30 C-43.56242412 31.16677642 -45.24992548 32.33344113 -46.9375 33.5 C-48.20400391 34.37785156 -48.20400391 34.37785156 -49.49609375 35.2734375 C-51.8627854 36.905384 -54.24066719 38.51897272 -56.625 40.125 C-57.34316895 40.61097656 -58.06133789 41.09695312 -58.80126953 41.59765625 C-60.14334994 42.50522746 -61.48792482 43.40912541 -62.83544922 44.30859375 C-66.6438782 46.89796246 -69.7992189 49.65962097 -73 53 C-74.16753709 54.10615916 -75.33976236 55.20738262 -76.515625 56.3046875 C-77.7606472 57.49455049 -79.005435 58.68465879 -80.25 59.875 C-81.20519531 60.75478516 -81.20519531 60.75478516 -82.1796875 61.65234375 C-85.29125814 64.66460894 -86.84174932 66.45504221 -88.07421875 70.69921875 C-87.99684803 74.14017968 -87.72810399 75.34933913 -85.5625 77.9375 C-84.716875 78.948125 -83.87125 79.95875 -83 81 C-86.38231081 79.60042311 -88.27928642 78.26935579 -90 75 C-90.60034606 69.76841288 -90.3374521 66.26043679 -87.37109375 61.703125 C-84.64585597 58.31792936 -81.39610974 55.68881184 -78 53 C-77.01386719 52.21367188 -76.02773437 51.42734375 -75.01171875 50.6171875 C-68.98535274 45.87019763 -62.81864713 41.44259176 -56.3984375 37.23828125 C-45.27979365 29.95446236 -34.393339 22.30206197 -23.5 14.6875 C-22.24135132 13.80819824 -22.24135132 13.80819824 -20.95727539 12.91113281 C-15.55813545 9.12652323 -10.23393045 5.26371001 -4.99609375 1.2578125 C-3 0 -3 0 0 0 Z " fill="#C8BCAA" transform="translate(91,44)"/>
<path d="M0 0 C0 4.29 0 8.58 0 13 C-0.33 13 -0.66 13 -1 13 C-1 9.37 -1 5.74 -1 2 C-5.90004 4.67331296 -10.26685795 7.58536992 -14.625 11.0625 C-17.61241303 13.4334068 -20.54870675 15.73208348 -23.8359375 17.68359375 C-26.12959777 18.81608418 -26.12959777 18.81608418 -27 21 C-27.82757813 21.4125 -28.65515625 21.825 -29.5078125 22.25 C-33.91869458 24.46037492 -37.83104543 27.18624254 -41.875 30 C-43.56242412 31.16677642 -45.24992548 32.33344113 -46.9375 33.5 C-48.20400391 34.37785156 -48.20400391 34.37785156 -49.49609375 35.2734375 C-51.8627854 36.905384 -54.24066719 38.51897272 -56.625 40.125 C-57.34316895 40.61097656 -58.06133789 41.09695312 -58.80126953 41.59765625 C-60.14334994 42.50522746 -61.48792482 43.40912541 -62.83544922 44.30859375 C-66.6438782 46.89796246 -69.7992189 49.65962097 -73 53 C-74.16753709 54.10615916 -75.33976236 55.20738262 -76.515625 56.3046875 C-77.7606472 57.49455049 -79.005435 58.68465879 -80.25 59.875 C-81.20519531 60.75478516 -81.20519531 60.75478516 -82.1796875 61.65234375 C-85.29125814 64.66460894 -86.84174932 66.45504221 -88.07421875 70.69921875 C-87.99684803 74.14017968 -87.72810399 75.34933913 -85.5625 77.9375 C-84.716875 78.948125 -83.87125 79.95875 -83 81 C-86.38231081 79.60042311 -88.27928642 78.26935579 -90 75 C-90.60034606 69.76841288 -90.3374521 66.26043679 -87.37109375 61.703125 C-84.64585597 58.31792936 -81.39610974 55.68881184 -78 53 C-77.01386719 52.21367188 -76.02773437 51.42734375 -75.01171875 50.6171875 C-68.98535274 45.87019763 -62.81864713 41.44259176 -56.3984375 37.23828125 C-45.27979365 29.95446236 -34.393339 22.30206197 -23.5 14.6875 C-22.24135132 13.80819824 -22.24135132 13.80819824 -20.95727539 12.91113281 C-15.55813545 9.12652323 -10.23393045 5.26371001 -4.99609375 1.2578125 C-3 0 -3 0 0 0 Z " fill="#CEBD9E" transform="translate(91,44)"/>
<path d="M0 0 C3.87997519 0.54943705 6.15087406 1.56856381 9.25 3.9375 C25.75434316 15.83990222 44.39332412 24.55358046 62.46435547 33.76611328 C92.51224622 49.09368146 92.51224622 49.09368146 99 56 C98.505 56.99 98.505 56.99 98 58 C97.55914062 57.61070313 97.11828125 57.22140625 96.6640625 56.8203125 C85.00360631 47.12560371 70.81203606 40.86440005 57.3125 34.1875 C40.38462492 25.81223635 23.85169595 16.84031233 8.13598633 6.3371582 C5.436216 4.53492425 3.0964602 3.0321534 0 2 C-0.2475 2.70125 -0.495 3.4025 -0.75 4.125 C-2.16088026 7.37002459 -3.97895398 10.10316737 -6 13 C-6.33 12.34 -6.66 11.68 -7 11 C-5.56640625 8.3984375 -5.56640625 8.3984375 -3.5625 5.375 C-2.90378906 4.37210938 -2.24507812 3.36921875 -1.56640625 2.3359375 C-1.04949219 1.56507812 -0.53257812 0.79421875 0 0 Z " fill="#CEC2AA" transform="translate(154,44)"/>
<path d="M0 0 C4.40969074 0.62174672 7.79318291 2.25574783 11.7265625 4.30859375 C12.67080582 4.79876732 12.67080582 4.79876732 13.63412476 5.29884338 C14.9584521 5.9877323 16.28123418 6.67959912 17.60253906 7.37426758 C19.62242878 8.43614828 21.64664587 9.4893599 23.671875 10.54101562 C33.47951389 15.65300926 33.47951389 15.65300926 37 18 C37 18.66 37 19.32 37 20 C30.91191791 18.33217247 25.66685681 15.23486253 20.1875 12.1875 C19.24068359 11.66607422 18.29386719 11.14464844 17.31835938 10.60742188 C14.54246616 9.07714626 11.77057741 7.53987564 9 6 C8.10748535 5.5045166 7.2149707 5.0090332 6.29541016 4.49853516 C4.19655298 3.33305115 2.09807226 2.16689622 0 1 C0 0.67 0 0.34 0 0 Z " fill="#D6C39F" transform="translate(25,135)"/>
<path d="M0 0 C2.46739304 3.70108956 2.66787251 6.70532615 2 11 C-0.32436811 14.90493843 -3.67066728 17.45313312 -7.12890625 20.31640625 C-9.82744038 22.7445236 -12.1074685 25.47535922 -14.421875 28.265625 C-16 30 -16 30 -19 32 C-17.63055898 29.05043472 -16.12169591 26.47531189 -14 24 C-13.34 24 -12.68 24 -12 24 C-11.7525 23.42765625 -11.505 22.8553125 -11.25 22.265625 C-9.80683801 19.64989389 -8.11783778 17.85226544 -6 15.75 C-5.29875 15.04359375 -4.5975 14.3371875 -3.875 13.609375 C-2 12 -2 12 0 12 C0 8.04 0 4.08 0 0 Z " fill="#BBB1A3" transform="translate(90,57)"/>
<path d="M0 0 C0.2784375 0.57363281 0.556875 1.14726563 0.84375 1.73828125 C5.12891486 10.12041117 10.80549156 15.98561843 18 22 C17.01 22.33 16.02 22.66 15 23 C13.16052663 21.21427748 11.32842259 19.42197551 9.5 17.625 C8.97535156 17.11710937 8.45070313 16.60921875 7.91015625 16.0859375 C6.56846819 14.76167396 5.28004185 13.38394135 4 12 C4 11.34 4 10.68 4 10 C3.34 10 2.68 10 2 10 C-0.09350689 6.5980513 -0.17942163 3.94727588 0 0 Z " fill="#C1B8AF" transform="translate(57,112)"/>
<path d="M0 0 C5.85272256 0.45020943 10.08220119 3.03839227 15 6 C15 6.66 15 7.32 15 8 C9.52067211 6.45454854 4.88570819 3.84456788 0 1 C0 0.67 0 0.34 0 0 Z " fill="#CABBA6" transform="translate(47,147)"/>
<path d="M0 0 C4.12751449 0.60698743 7.3321148 2.03810791 11 4 C11 4.66 11 5.32 11 6 C6.95743617 4.77782954 3.50711041 3.37245704 0 1 C0 0.67 0 0.34 0 0 Z " fill="#D2C3A5" transform="translate(14,129)"/>
<path d="M0 0 C4.7517398 0.43197635 6.92000054 1.32769295 10 5 C5.75354935 5 3.61475228 3.18249194 0 1 C0 0.67 0 0.34 0 0 Z " fill="#DDC89E" transform="translate(62,155)"/>
</svg>

